<svg xmlns="http://www.w3.org/2000/svg" width="20" height="20" viewBox="0 0 20 20">
    <g fill="none" fill-rule="evenodd">
        <g>
            <g>
                <path fill="#2EAC63" d="M7 0h11c1.105 0 2 .895 2 2v16c0 1.105-.895 2-2 2H7c-1.105 0-2-.895-2-2V2c0-1.105.895-2 2-2z" transform="translate(-542 -379) rotate(90 91.5 470.5)"/>
                <path fill="#FFF" fill-rule="nonzero" d="M5 5c-2.761 0-5 2.239-5 5s2.239 5 5 5 5-2.239 5-5-2.239-5-5-5z" transform="translate(-542 -379) rotate(90 91.5 470.5)"/>
                <path fill="#2EAC63" d="M5 6.667c1.84 0 3.333 1.492 3.333 3.333 0 1.84-1.492 3.333-3.333 3.333-1.84 0-3.333-1.492-3.333-3.333 0-1.84 1.492-3.333 3.333-3.333z" transform="translate(-542 -379) rotate(90 91.5 470.5)"/>
            </g>
        </g>
    </g>
</svg>
